<svg xmlns="http://www.w3.org/2000/svg" version="1.1" xmlns:xlink="http://www.w3.org/1999/xlink" xmlns:svgjs="http://svgjs.com/svgjs" width="1440" height="500" preserveAspectRatio="none" viewBox="0 0 1440 500"><g mask="url(&quot;#SvgjsMask1049&quot;)" fill="none"><rect width="1440" height="500" x="0" y="0" fill="rgba(33, 37, 41, 1)"></rect><path d="M717.89 594.2C834.22 538.37 779.52 165.18 1000.85 162.55 1222.19 159.92 1418.33 340.4 1566.78 342.55" stroke="rgba(224, 106, 32, 1)" stroke-width="2"></path><path d="M908.98 584.2C1044.09 558.64 1081.45 234.37 1318.38 216.89 1555.3 199.41 1621.47 102.97 1727.77 101.89" stroke="rgba(224, 106, 32, 1)" stroke-width="2"></path><path d="M237.31 575.87C406.12 574.06 548.3 394.12 886.57 390.22 1224.83 386.32 1366.36 197.31 1535.82 195.22" stroke="rgba(224, 106, 32, 1)" stroke-width="2"></path><path d="M469.01 503.54C640.98 490.03 740.75 155.73 1059.51 146.57 1378.27 137.41 1499.12 22.25 1650.01 21.57" stroke="rgba(224, 106, 32, 1)" stroke-width="2"></path><path d="M580.08 564.29C753.37 536.08 844.17 115.52 1119.35 114.4 1394.52 113.28 1512.12 339.66 1658.61 344.4" stroke="rgba(224, 106, 32, 1)" stroke-width="2"></path></g><defs><mask id="SvgjsMask1049"><rect width="1440" height="500" fill="#ffffff"></rect></mask></defs></svg>